<?xml version="1.0" standalone="no"?>
<!DOCTYPE svg PUBLIC "-//W3C//DTD SVG 20010904//EN"
 "http://www.w3.org/TR/2001/REC-SVG-20010904/DTD/svg10.dtd">
<svg version="1.0" xmlns="http://www.w3.org/2000/svg"
 width="512.000000pt" height="512.000000pt" viewBox="0 0 512.000000 512.000000"
 preserveAspectRatio="xMidYMid meet">

<g transform="translate(0.000000,512.000000) scale(0.100000,-0.100000)"
fill="#000000" stroke="none">
<path d="M1812 5105 c-165 -36 -315 -153 -388 -303 l-39 -80 -305 -4 c-298 -4
-307 -5 -395 -31 -257 -79 -462 -283 -542 -542 l-28 -90 0 -1695 0 -1695 28
-90 c80 -259 283 -462 542 -542 l90 -28 541 0 540 0 41 27 c62 41 88 90 88
168 0 78 -26 127 -88 168 l-40 27 -516 5 c-510 5 -517 5 -574 28 -111 45 -195
133 -234 246 -17 48 -18 138 -18 1686 0 1548 1 1638 18 1686 52 150 180 251
342 270 l54 7 3 -330 3 -330 27 -40 c15 -22 44 -51 65 -64 l38 -24 1011 0
1010 0 41 27 c22 15 51 44 64 65 24 38 24 41 27 367 l3 328 47 -7 c152 -23
266 -112 325 -256 21 -52 22 -67 25 -491 l3 -438 -353 0 c-272 0 -369 -4 -423
-15 -225 -47 -413 -235 -460 -460 -22 -104 -22 -2076 0 -2180 47 -225 235
-413 460 -460 104 -22 1586 -22 1690 0 226 48 413 236 461 465 31 149 0 246
-95 297 -87 46 -196 19 -253 -63 -19 -27 -31 -60 -37 -107 -13 -95 -47 -149
-114 -181 l-53 -26 -770 2 -771 3 -39 27 c-21 15 -50 44 -64 65 l-25 37 0
1031 0 1031 25 37 c14 21 43 50 64 65 l39 27 787 0 787 0 39 -27 c21 -15 50
-44 64 -65 l25 -36 5 -527 5 -526 27 -41 c41 -62 90 -88 168 -88 78 0 127 26
168 88 l27 41 3 517 c3 581 1 606 -64 739 -51 103 -161 213 -264 264 -114 55
-181 66 -437 66 l-222 0 -3 463 -4 462 -27 90 c-80 258 -284 463 -542 542 -88
26 -97 27 -395 31 l-305 4 -39 80 c-74 152 -224 267 -392 303 -91 19 -413 19
-502 0z m453 -404 c61 -27 89 -68 114 -163 48 -188 92 -218 312 -218 l129 0 0
-195 0 -195 -745 0 -745 0 0 195 0 195 119 0 c209 0 254 33 302 218 25 95 53
136 114 163 33 16 66 19 200 19 134 0 167 -3 200 -19z"/>
<path d="M3302 2319 c-47 -14 -109 -80 -123 -131 -23 -89 12 -182 88 -229 l38
-24 386 0 385 0 41 27 c62 41 88 90 88 168 0 78 -26 127 -88 168 l-41 27 -370
2 c-217 1 -385 -2 -404 -8z"/>
<path d="M3302 1619 c-47 -14 -109 -80 -123 -131 -23 -89 12 -182 88 -229 l38
-24 386 0 385 0 41 27 c62 41 88 90 88 168 0 78 -26 127 -88 168 l-41 27 -370
2 c-217 1 -385 -2 -404 -8z"/>
</g>
</svg>
